<?xml version="1.0" encoding="utf-8"?>
<!-- Generator: Adobe Illustrator 21.0.0, SVG Export Plug-In . SVG Version: 6.00 Build 0)  -->
<svg version="1.1" xmlns="http://www.w3.org/2000/svg" xmlns:xlink="http://www.w3.org/1999/xlink" x="0px" y="0px"
	 viewBox="0 0 125 40" enable-background="new 0 0 125 40" xml:space="preserve">
<g id="bg" display="none">
	<rect display="inline" fill="#FFFFFF" width="125" height="40"/>
</g>
<g id="icons">
	<g id="icons_1_">
		<g>
			<g>
				<path d="M7.6,17.2v5.6c0,1,0,1.8-0.1,2.2c-0.1,0.8-0.4,1.4-0.9,2c-0.7,0.9-1.6,1.3-2.8,1.3S1.7,27.9,1,27
					c-0.4-0.5-0.7-1.2-0.8-2C0,24.6,0,23.9,0,22.9v-5.6c0-1,0-1.8,0.1-2.2c0.1-0.8,0.4-1.5,0.8-2c0.7-0.9,1.6-1.3,2.8-1.3
					s2.1,0.4,2.8,1.3c0.4,0.5,0.7,1.2,0.8,2C7.5,15.5,7.6,16.2,7.6,17.2z M2.4,17.5v5.1c0,1.4,0.1,2.3,0.2,2.6
					c0.2,0.6,0.6,0.9,1.2,0.9S4.9,25.7,5,25c0.1-0.3,0.1-1.2,0.1-2.4v-5.1c0-1.4-0.1-2.3-0.2-2.6C4.7,14.3,4.3,14,3.7,14
					c-0.7,0-1.1,0.4-1.3,1.1C2.5,15.4,2.4,16.2,2.4,17.5z"/>
				<path d="M17.4,12v2.2h-4.1v4.4h3v2.2h-3V28h-2.4V12H17.4z"/>
				<path d="M26.6,12v2.2h-4.1v4.4h3v2.2h-3V28h-2.4V12H26.6z"/>
				<path d="M31.7,12v16.1h-2.4V12H31.7z"/>
				<path d="M42.6,17.3h-2.4c0-0.9,0-1.6-0.1-2.1c-0.1-0.9-0.5-1.3-1.3-1.3c-0.6,0-1.1,0.4-1.2,1.1c-0.1,0.3-0.1,1.1-0.1,2.4v5.1
					c0,1.4,0.1,2.2,0.2,2.6c0.2,0.6,0.6,0.9,1.2,0.9c0.8,0,1.2-0.5,1.3-1.4c0-0.5,0.1-1.3,0.1-2.3h2.4v0.9c0,1.4-0.2,2.4-0.6,3.1
					c-0.6,1.3-1.7,1.9-3.2,1.9c-1.2,0-2.1-0.4-2.8-1.3c-0.5-0.6-0.7-1.2-0.9-2c-0.2-0.3-0.2-1-0.2-2.1v-5.5c0-1.1,0-1.8,0.1-2.2
					c0.1-0.8,0.4-1.5,0.9-2.1c0.7-0.9,1.6-1.3,2.8-1.3c1.5,0,2.7,0.7,3.3,2c0.3,0.6,0.5,1.5,0.5,2.7V17.3z"/>
				<path d="M48.1,12v16.1h-2.4V12H48.1z"/>
				<path d="M56.6,24.6H54l-0.6,3.5H51L53.6,12h3.1l2.8,16.1H57L56.6,24.6z M56.2,22.3l-1-6.4l-0.9,6.4H56.2z"/>
				<path d="M68.9,25.9v2.2h-6.4V12h2.4v13.9H68.9z"/>
				<path d="M84.1,15.6l-2.3,0.3c-0.1-0.7-0.2-1.2-0.4-1.5c-0.2-0.3-0.5-0.4-1-0.4c-0.9,0-1.4,0.5-1.4,1.6c0,0.6,0.1,1.1,0.4,1.5
					c0.3,0.5,0.9,1.1,1.7,1.8c1.3,1.1,2.1,2.1,2.5,2.8s0.6,1.5,0.6,2.5c0,1.2-0.4,2.2-1.1,3s-1.6,1.1-2.8,1.1
					c-1.2,0-2.1-0.4-2.9-1.2c-0.7-0.8-1.1-1.8-1.1-3.2l2.3-0.4c0.1,1.7,0.6,2.5,1.7,2.5c0.5,0,0.8-0.2,1.1-0.5s0.4-0.7,0.4-1.3
					c0-0.6-0.2-1.2-0.6-1.7c-0.3-0.4-0.9-1-1.9-1.9c-1-1-1.8-1.8-2.2-2.5c-0.4-0.7-0.6-1.5-0.6-2.4c0-1.2,0.3-2.2,1-2.9
					s1.6-1.1,2.8-1.1C82.6,11.8,83.8,13,84.1,15.6z"/>
				<path d="M91.6,14.2v13.9h-2.4V14.2h-2.6V12h7.6v2.2H91.6z"/>
				<path d="M104.5,17.2v5.6c0,1,0,1.8-0.1,2.2c-0.1,0.8-0.4,1.4-0.9,2c-0.7,0.9-1.6,1.3-2.8,1.3c-1.2,0-2.1-0.4-2.8-1.3
					c-0.4-0.5-0.7-1.2-0.8-2C97,24.6,97,23.8,97,22.8v-5.6c0-1,0-1.8,0.1-2.2c0.1-0.8,0.4-1.5,0.8-2c0.7-0.9,1.6-1.3,2.8-1.3
					c1.2,0,2.1,0.4,2.8,1.3c0.4,0.5,0.7,1.2,0.8,2C104.4,15.5,104.5,16.2,104.5,17.2z M99.3,17.5v5.1c0,1.4,0.1,2.3,0.2,2.6
					c0.2,0.6,0.6,0.9,1.2,0.9s1.1-0.4,1.2-1.1c0.1-0.3,0.1-1.2,0.1-2.4v-5.1c0-1.4-0.1-2.3-0.2-2.6c-0.2-0.6-0.6-0.9-1.2-0.9
					c-0.7,0-1.1,0.4-1.3,1.1C99.4,15.4,99.3,16.2,99.3,17.5z"/>
				<path d="M110.2,21.4v6.7h-2.4V12h3.4c1.4,0,2.4,0.4,3.1,1.1s1,1.9,1,3.5c0,1-0.1,1.9-0.4,2.5c-0.2,0.6-0.7,1.1-1.3,1.6l1.9,7.4
					h-2.6l-1.5-6.7L110.2,21.4z M110.2,19.1h0.8c0.7,0,1.2-0.2,1.4-0.5c0.3-0.4,0.4-1.1,0.4-1.9c0-0.9-0.2-1.6-0.5-2.1
					c-0.2-0.3-0.6-0.4-1.3-0.4h-0.8V19.1z"/>
				<path d="M125,12v2.2h-4.2v4.4h3v2.2h-3v5h4.2V28h-6.6V12C118.4,12,125,12,125,12z"/>
			</g>
		</g>
	</g>
</g>
</svg>
